<?xml version="1.0" encoding="utf-8"?>
<svg xmlns="http://www.w3.org/2000/svg" viewBox="0 0 1200 300" width="1200" height="300">
  <rect width="100%" height="100%" fill="none"/>
  <g id="icon" transform="translate(60,40)">
    <path d="M0 50
             C0 22 22 0 50 0
             L180 0
             C196 0 210 14 210 30
             C210 46 196 60 180 60
             L90 60
             C70 60 56 74 56 94
             C56 114 72 130 92 130
             C112 130 128 114 128 94
             C128 84 122 76 112 72
             L180 72
             C212 72 240 44 240 12
             C240 -20 212 -48 180 -48
             L50 -48
             C18 -48 -10 -20 -10 12
             L-10 50 Z"
          transform="scale(0.7) translate(10,60)"
          fill="#31c07b" />
    <circle cx="70" cy="190" r="22" fill="#31c07b"/>
  </g>
  <text x="320" y="150" font-family="Montserrat, Arial, sans-serif" font-weight="700" font-size="110" fill="#21303a">
    ZipBasket
  </text>
</svg>
